#usda 1.0
(
    defaultPrim = "HollowTube"
)

def Xform "HollowTube" (
    prepend apiSchemas = ["PhysicsRigidBodyAPI", "PhysicsCollisionAPI", "PhysicsMassAPI"]
)
{
    bool physics:kinematicEnabled = 1
    float physics:mass = 0.2
    def Mesh "geometry" (
        prepend apiSchemas = ["PhysicsCollisionAPI"]
    )
    {
        uniform token physics:approximation = "none"
        point3f[] points = [(0.025000, 0.000000, -0.030000), (0.024786, 0.003263, -0.030000), (0.024148, 0.006470, -0.030000), (0.023097, 0.009567, -0.030000), (0.021651, 0.012500, -0.030000), (0.019834, 0.015219, -0.030000), (0.017678, 0.017678, -0.030000), (0.015219, 0.019834, -0.030000), (0.012500, 0.021651, -0.030000), (0.009567, 0.023097, -0.030000), (0.006470, 0.024148, -0.030000), (0.003263, 0.024786, -0.030000), (0.000000, 0.025000, -0.030000), (-0.003263, 0.024786, -0.030000), (-0.006470, 0.024148, -0.030000), (-0.009567, 0.023097, -0.030000), (-0.012500, 0.021651, -0.030000), (-0.015219, 0.019834, -0.030000), (-0.017678, 0.017678, -0.030000), (-0.019834, 0.015219, -0.030000), (-0.021651, 0.012500, -0.030000), (-0.023097, 0.009567, -0.030000), (-0.024148, 0.006470, -0.030000), (-0.024786, 0.003263, -0.030000), (-0.025000, 0.000000, -0.030000), (-0.024786, -0.003263, -0.030000), (-0.024148, -0.006470, -0.030000), (-0.023097, -0.009567, -0.030000), (-0.021651, -0.012500, -0.030000), (-0.019834, -0.015219, -0.030000), (-0.017678, -0.017678, -0.030000), (-0.015219, -0.019834, -0.030000), (-0.012500, -0.021651, -0.030000), (-0.009567, -0.023097, -0.030000), (-0.006470, -0.024148, -0.030000), (-0.003263, -0.024786, -0.030000), (-0.000000, -0.025000, -0.030000), (0.003263, -0.024786, -0.030000), (0.006470, -0.024148, -0.030000), (0.009567, -0.023097, -0.030000), (0.012500, -0.021651, -0.030000), (0.015219, -0.019834, -0.030000), (0.017678, -0.017678, -0.030000), (0.019834, -0.015219, -0.030000), (0.021651, -0.012500, -0.030000), (0.023097, -0.009567, -0.030000), (0.024148, -0.006470, -0.030000), (0.024786, -0.003263, -0.030000), (0.015000, 0.000000, -0.030000), (0.014872, 0.001958, -0.030000), (0.014489, 0.003882, -0.030000), (0.013858, 0.005740, -0.030000), (0.012990, 0.007500, -0.030000), (0.011900, 0.009131, -0.030000), (0.010607, 0.010607, -0.030000), (0.009131, 0.011900, -0.030000), (0.007500, 0.012990, -0.030000), (0.005740, 0.013858, -0.030000), (0.003882, 0.014489, -0.030000), (0.001958, 0.014872, -0.030000), (0.000000, 0.015000, -0.030000), (-0.001958, 0.014872, -0.030000), (-0.003882, 0.014489, -0.030000), (-0.005740, 0.013858, -0.030000), (-0.007500, 0.012990, -0.030000), (-0.009131, 0.011900, -0.030000), (-0.010607, 0.010607, -0.030000), (-0.011900, 0.009131, -0.030000), (-0.012990, 0.007500, -0.030000), (-0.013858, 0.005740, -0.030000), (-0.014489, 0.003882, -0.030000), (-0.014872, 0.001958, -0.030000), (-0.015000, 0.000000, -0.030000), (-0.014872, -0.001958, -0.030000), (-0.014489, -0.003882, -0.030000), (-0.013858, -0.005740, -0.030000), (-0.012990, -0.007500, -0.030000), (-0.011900, -0.009131, -0.030000), (-0.010607, -0.010607, -0.030000), (-0.009131, -0.011900, -0.030000), (-0.007500, -0.012990, -0.030000), (-0.005740, -0.013858, -0.030000), (-0.003882, -0.014489, -0.030000), (-0.001958, -0.014872, -0.030000), (-0.000000, -0.015000, -0.030000), (0.001958, -0.014872, -0.030000), (0.003882, -0.014489, -0.030000), (0.005740, -0.013858, -0.030000), (0.007500, -0.012990, -0.030000), (0.009131, -0.011900, -0.030000), (0.010607, -0.010607, -0.030000), (0.011900, -0.009131, -0.030000), (0.012990, -0.007500, -0.030000), (0.013858, -0.005740, -0.030000), (0.014489, -0.003882, -0.030000), (0.014872, -0.001958, -0.030000), (0.025000, 0.000000, 0.030000), (0.024786, 0.003263, 0.030000), (0.024148, 0.006470, 0.030000), (0.023097, 0.009567, 0.030000), (0.021651, 0.012500, 0.030000), (0.019834, 0.015219, 0.030000), (0.017678, 0.017678, 0.030000), (0.015219, 0.019834, 0.030000), (0.012500, 0.021651, 0.030000), (0.009567, 0.023097, 0.030000), (0.006470, 0.024148, 0.030000), (0.003263, 0.024786, 0.030000), (0.000000, 0.025000, 0.030000), (-0.003263, 0.024786, 0.030000), (-0.006470, 0.024148, 0.030000), (-0.009567, 0.023097, 0.030000), (-0.012500, 0.021651, 0.030000), (-0.015219, 0.019834, 0.030000), (-0.017678, 0.017678, 0.030000), (-0.019834, 0.015219, 0.030000), (-0.021651, 0.012500, 0.030000), (-0.023097, 0.009567, 0.030000), (-0.024148, 0.006470, 0.030000), (-0.024786, 0.003263, 0.030000), (-0.025000, 0.000000, 0.030000), (-0.024786, -0.003263, 0.030000), (-0.024148, -0.006470, 0.030000), (-0.023097, -0.009567, 0.030000), (-0.021651, -0.012500, 0.030000), (-0.019834, -0.015219, 0.030000), (-0.017678, -0.017678, 0.030000), (-0.015219, -0.019834, 0.030000), (-0.012500, -0.021651, 0.030000), (-0.009567, -0.023097, 0.030000), (-0.006470, -0.024148, 0.030000), (-0.003263, -0.024786, 0.030000), (-0.000000, -0.025000, 0.030000), (0.003263, -0.024786, 0.030000), (0.006470, -0.024148, 0.030000), (0.009567, -0.023097, 0.030000), (0.012500, -0.021651, 0.030000), (0.015219, -0.019834, 0.030000), (0.017678, -0.017678, 0.030000), (0.019834, -0.015219, 0.030000), (0.021651, -0.012500, 0.030000), (0.023097, -0.009567, 0.030000), (0.024148, -0.006470, 0.030000), (0.024786, -0.003263, 0.030000), (0.015000, 0.000000, 0.030000), (0.014872, 0.001958, 0.030000), (0.014489, 0.003882, 0.030000), (0.013858, 0.005740, 0.030000), (0.012990, 0.007500, 0.030000), (0.011900, 0.009131, 0.030000), (0.010607, 0.010607, 0.030000), (0.009131, 0.011900, 0.030000), (0.007500, 0.012990, 0.030000), (0.005740, 0.013858, 0.030000), (0.003882, 0.014489, 0.030000), (0.001958, 0.014872, 0.030000), (0.000000, 0.015000, 0.030000), (-0.001958, 0.014872, 0.030000), (-0.003882, 0.014489, 0.030000), (-0.005740, 0.013858, 0.030000), (-0.007500, 0.012990, 0.030000), (-0.009131, 0.011900, 0.030000), (-0.010607, 0.010607, 0.030000), (-0.011900, 0.009131, 0.030000), (-0.012990, 0.007500, 0.030000), (-0.013858, 0.005740, 0.030000), (-0.014489, 0.003882, 0.030000), (-0.014872, 0.001958, 0.030000), (-0.015000, 0.000000, 0.030000), (-0.014872, -0.001958, 0.030000), (-0.014489, -0.003882, 0.030000), (-0.013858, -0.005740, 0.030000), (-0.012990, -0.007500, 0.030000), (-0.011900, -0.009131, 0.030000), (-0.010607, -0.010607, 0.030000), (-0.009131, -0.011900, 0.030000), (-0.007500, -0.012990, 0.030000), (-0.005740, -0.013858, 0.030000), (-0.003882, -0.014489, 0.030000), (-0.001958, -0.014872, 0.030000), (-0.000000, -0.015000, 0.030000), (0.001958, -0.014872, 0.030000), (0.003882, -0.014489, 0.030000), (0.005740, -0.013858, 0.030000), (0.007500, -0.012990, 0.030000), (0.009131, -0.011900, 0.030000), (0.010607, -0.010607, 0.030000), (0.011900, -0.009131, 0.030000), (0.012990, -0.007500, 0.030000), (0.013858, -0.005740, 0.030000), (0.014489, -0.003882, 0.030000), (0.014872, -0.001958, 0.030000)]
        int[] faceVertexCounts = [3, 3, 3, 3, 3, 3, 3, 3, 3, 3, 3, 3, 3, 3, 3, 3, 3, 3, 3, 3, 3, 3, 3, 3, 3, 3, 3, 3, 3, 3, 3, 3, 3, 3, 3, 3, 3, 3, 3, 3, 3, 3, 3, 3, 3, 3, 3, 3, 3, 3, 3, 3, 3, 3, 3, 3, 3, 3, 3, 3, 3, 3, 3, 3, 3, 3, 3, 3, 3, 3, 3, 3, 3, 3, 3, 3, 3, 3, 3, 3, 3, 3, 3, 3, 3, 3, 3, 3, 3, 3, 3, 3, 3, 3, 3, 3, 3, 3, 3, 3, 3, 3, 3, 3, 3, 3, 3, 3, 3, 3, 3, 3, 3, 3, 3, 3, 3, 3, 3, 3, 3, 3, 3, 3, 3, 3, 3, 3, 3, 3, 3, 3, 3, 3, 3, 3, 3, 3, 3, 3, 3, 3, 3, 3, 3, 3, 3, 3, 3, 3, 3, 3, 3, 3, 3, 3, 3, 3, 3, 3, 3, 3, 3, 3, 3, 3, 3, 3, 3, 3, 3, 3, 3, 3, 3, 3, 3, 3, 3, 3, 3, 3, 3, 3, 3, 3, 3, 3, 3, 3, 3, 3, 3, 3, 3, 3, 3, 3, 3, 3, 3, 3, 3, 3, 3, 3, 3, 3, 3, 3, 3, 3, 3, 3, 3, 3, 3, 3, 3, 3, 3, 3, 3, 3, 3, 3, 3, 3, 3, 3, 3, 3, 3, 3, 3, 3, 3, 3, 3, 3, 3, 3, 3, 3, 3, 3, 3, 3, 3, 3, 3, 3, 3, 3, 3, 3, 3, 3, 3, 3, 3, 3, 3, 3, 3, 3, 3, 3, 3, 3, 3, 3, 3, 3, 3, 3, 3, 3, 3, 3, 3, 3, 3, 3, 3, 3, 3, 3, 3, 3, 3, 3, 3, 3, 3, 3, 3, 3, 3, 3, 3, 3, 3, 3, 3, 3, 3, 3, 3, 3, 3, 3, 3, 3, 3, 3, 3, 3, 3, 3, 3, 3, 3, 3, 3, 3, 3, 3, 3, 3, 3, 3, 3, 3, 3, 3, 3, 3, 3, 3, 3, 3, 3, 3, 3, 3, 3, 3, 3, 3, 3, 3, 3, 3, 3, 3, 3, 3, 3, 3, 3, 3, 3, 3, 3, 3, 3, 3, 3, 3, 3, 3, 3, 3, 3, 3, 3, 3, 3, 3, 3, 3, 3, 3]
        int[] faceVertexIndices = [0, 1, 97, 0, 97, 96, 48, 144, 145, 48, 145, 49, 0, 48, 49, 0, 49, 1, 96, 97, 145, 96, 145, 144, 1, 2, 98, 1, 98, 97, 49, 145, 146, 49, 146, 50, 1, 49, 50, 1, 50, 2, 97, 98, 146, 97, 146, 145, 2, 3, 99, 2, 99, 98, 50, 146, 147, 50, 147, 51, 2, 50, 51, 2, 51, 3, 98, 99, 147, 98, 147, 146, 3, 4, 100, 3, 100, 99, 51, 147, 148, 51, 148, 52, 3, 51, 52, 3, 52, 4, 99, 100, 148, 99, 148, 147, 4, 5, 101, 4, 101, 100, 52, 148, 149, 52, 149, 53, 4, 52, 53, 4, 53, 5, 100, 101, 149, 100, 149, 148, 5, 6, 102, 5, 102, 101, 53, 149, 150, 53, 150, 54, 5, 53, 54, 5, 54, 6, 101, 102, 150, 101, 150, 149, 6, 7, 103, 6, 103, 102, 54, 150, 151, 54, 151, 55, 6, 54, 55, 6, 55, 7, 102, 103, 151, 102, 151, 150, 7, 8, 104, 7, 104, 103, 55, 151, 152, 55, 152, 56, 7, 55, 56, 7, 56, 8, 103, 104, 152, 103, 152, 151, 8, 9, 105, 8, 105, 104, 56, 152, 153, 56, 153, 57, 8, 56, 57, 8, 57, 9, 104, 105, 153, 104, 153, 152, 9, 10, 106, 9, 106, 105, 57, 153, 154, 57, 154, 58, 9, 57, 58, 9, 58, 10, 105, 106, 154, 105, 154, 153, 10, 11, 107, 10, 107, 106, 58, 154, 155, 58, 155, 59, 10, 58, 59, 10, 59, 11, 106, 107, 155, 106, 155, 154, 11, 12, 108, 11, 108, 107, 59, 155, 156, 59, 156, 60, 11, 59, 60, 11, 60, 12, 107, 108, 156, 107, 156, 155, 12, 13, 109, 12, 109, 108, 60, 156, 157, 60, 157, 61, 12, 60, 61, 12, 61, 13, 108, 109, 157, 108, 157, 156, 13, 14, 110, 13, 110, 109, 61, 157, 158, 61, 158, 62, 13, 61, 62, 13, 62, 14, 109, 110, 158, 109, 158, 157, 14, 15, 111, 14, 111, 110, 62, 158, 159, 62, 159, 63, 14, 62, 63, 14, 63, 15, 110, 111, 159, 110, 159, 158, 15, 16, 112, 15, 112, 111, 63, 159, 160, 63, 160, 64, 15, 63, 64, 15, 64, 16, 111, 112, 160, 111, 160, 159, 16, 17, 113, 16, 113, 112, 64, 160, 161, 64, 161, 65, 16, 64, 65, 16, 65, 17, 112, 113, 161, 112, 161, 160, 17, 18, 114, 17, 114, 113, 65, 161, 162, 65, 162, 66, 17, 65, 66, 17, 66, 18, 113, 114, 162, 113, 162, 161, 18, 19, 115, 18, 115, 114, 66, 162, 163, 66, 163, 67, 18, 66, 67, 18, 67, 19, 114, 115, 163, 114, 163, 162, 19, 20, 116, 19, 116, 115, 67, 163, 164, 67, 164, 68, 19, 67, 68, 19, 68, 20, 115, 116, 164, 115, 164, 163, 20, 21, 117, 20, 117, 116, 68, 164, 165, 68, 165, 69, 20, 68, 69, 20, 69, 21, 116, 117, 165, 116, 165, 164, 21, 22, 118, 21, 118, 117, 69, 165, 166, 69, 166, 70, 21, 69, 70, 21, 70, 22, 117, 118, 166, 117, 166, 165, 22, 23, 119, 22, 119, 118, 70, 166, 167, 70, 167, 71, 22, 70, 71, 22, 71, 23, 118, 119, 167, 118, 167, 166, 23, 24, 120, 23, 120, 119, 71, 167, 168, 71, 168, 72, 23, 71, 72, 23, 72, 24, 119, 120, 168, 119, 168, 167, 24, 25, 121, 24, 121, 120, 72, 168, 169, 72, 169, 73, 24, 72, 73, 24, 73, 25, 120, 121, 169, 120, 169, 168, 25, 26, 122, 25, 122, 121, 73, 169, 170, 73, 170, 74, 25, 73, 74, 25, 74, 26, 121, 122, 170, 121, 170, 169, 26, 27, 123, 26, 123, 122, 74, 170, 171, 74, 171, 75, 26, 74, 75, 26, 75, 27, 122, 123, 171, 122, 171, 170, 27, 28, 124, 27, 124, 123, 75, 171, 172, 75, 172, 76, 27, 75, 76, 27, 76, 28, 123, 124, 172, 123, 172, 171, 28, 29, 125, 28, 125, 124, 76, 172, 173, 76, 173, 77, 28, 76, 77, 28, 77, 29, 124, 125, 173, 124, 173, 172, 29, 30, 126, 29, 126, 125, 77, 173, 174, 77, 174, 78, 29, 77, 78, 29, 78, 30, 125, 126, 174, 125, 174, 173, 30, 31, 127, 30, 127, 126, 78, 174, 175, 78, 175, 79, 30, 78, 79, 30, 79, 31, 126, 127, 175, 126, 175, 174, 31, 32, 128, 31, 128, 127, 79, 175, 176, 79, 176, 80, 31, 79, 80, 31, 80, 32, 127, 128, 176, 127, 176, 175, 32, 33, 129, 32, 129, 128, 80, 176, 177, 80, 177, 81, 32, 80, 81, 32, 81, 33, 128, 129, 177, 128, 177, 176, 33, 34, 130, 33, 130, 129, 81, 177, 178, 81, 178, 82, 33, 81, 82, 33, 82, 34, 129, 130, 178, 129, 178, 177, 34, 35, 131, 34, 131, 130, 82, 178, 179, 82, 179, 83, 34, 82, 83, 34, 83, 35, 130, 131, 179, 130, 179, 178, 35, 36, 132, 35, 132, 131, 83, 179, 180, 83, 180, 84, 35, 83, 84, 35, 84, 36, 131, 132, 180, 131, 180, 179, 36, 37, 133, 36, 133, 132, 84, 180, 181, 84, 181, 85, 36, 84, 85, 36, 85, 37, 132, 133, 181, 132, 181, 180, 37, 38, 134, 37, 134, 133, 85, 181, 182, 85, 182, 86, 37, 85, 86, 37, 86, 38, 133, 134, 182, 133, 182, 181, 38, 39, 135, 38, 135, 134, 86, 182, 183, 86, 183, 87, 38, 86, 87, 38, 87, 39, 134, 135, 183, 134, 183, 182, 39, 40, 136, 39, 136, 135, 87, 183, 184, 87, 184, 88, 39, 87, 88, 39, 88, 40, 135, 136, 184, 135, 184, 183, 40, 41, 137, 40, 137, 136, 88, 184, 185, 88, 185, 89, 40, 88, 89, 40, 89, 41, 136, 137, 185, 136, 185, 184, 41, 42, 138, 41, 138, 137, 89, 185, 186, 89, 186, 90, 41, 89, 90, 41, 90, 42, 137, 138, 186, 137, 186, 185, 42, 43, 139, 42, 139, 138, 90, 186, 187, 90, 187, 91, 42, 90, 91, 42, 91, 43, 138, 139, 187, 138, 187, 186, 43, 44, 140, 43, 140, 139, 91, 187, 188, 91, 188, 92, 43, 91, 92, 43, 92, 44, 139, 140, 188, 139, 188, 187, 44, 45, 141, 44, 141, 140, 92, 188, 189, 92, 189, 93, 44, 92, 93, 44, 93, 45, 140, 141, 189, 140, 189, 188, 45, 46, 142, 45, 142, 141, 93, 189, 190, 93, 190, 94, 45, 93, 94, 45, 94, 46, 141, 142, 190, 141, 190, 189, 46, 47, 143, 46, 143, 142, 94, 190, 191, 94, 191, 95, 46, 94, 95, 46, 95, 47, 142, 143, 191, 142, 191, 190, 47, 0, 96, 47, 96, 143, 95, 191, 144, 95, 144, 48, 47, 95, 48, 47, 48, 0, 143, 96, 144, 143, 144, 191]
        uniform token subdivisionScheme = "none"
    }
}
